<svg width="400" height="400" viewBox="0 0 400 400" fill="none" xmlns="http://www.w3.org/2000/svg">
  <rect width="400" height="400" fill="#F8F3E0"/>
  <path d="M200 100C144.772 100 100 144.772 100 200C100 255.228 144.772 300 200 300C255.228 300 300 255.228 300 200C300 144.772 255.228 100 200 100ZM200 280C155.817 280 120 244.183 120 200C120 155.817 155.817 120 200 120C244.183 120 280 155.817 280 200C280 244.183 244.183 280 200 280Z" fill="#D6A104" fill-opacity="0.3"/>
  <path d="M200 140C167.909 140 142 165.909 142 198C142 230.091 167.909 256 200 256C232.091 256 258 230.091 258 198C258 165.909 232.091 140 200 140ZM200 236C178.972 236 162 219.028 162 198C162 176.972 178.972 160 200 160C221.028 160 238 176.972 238 198C238 219.028 221.028 236 200 236Z" fill="#D6A104" fill-opacity="0.5"/>
  <path d="M200 180C189.954 180 182 187.954 182 198C182 208.046 189.954 216 200 216C210.046 216 218 208.046 218 198C218 187.954 210.046 180 200 180Z" fill="#D6A104"/>
</svg>

